<svg width="25" height="25" viewBox="0 0 25 25" fill="none" xmlns="http://www.w3.org/2000/svg">
<path d="M19.9 6.20314C20.0066 6.09434 20.1339 6.00791 20.2744 5.9489C20.4148 5.88989 20.5656 5.8595 20.718 5.8595C20.8703 5.8595 21.0211 5.88989 21.1616 5.9489C21.302 6.00791 21.4293 6.09434 21.5359 6.20314C21.9828 6.65471 21.9891 7.38439 21.5516 7.84377L12.3125 18.7656C12.2076 18.8808 12.0803 18.9734 11.9384 19.0377C11.7965 19.102 11.643 19.1367 11.4872 19.1396C11.3314 19.1425 11.1767 19.1137 11.0325 19.0547C10.8883 18.9958 10.7576 18.9081 10.6484 18.7969L5.02656 13.1C4.80975 12.8789 4.68829 12.5816 4.68829 12.2719C4.68829 11.9622 4.80975 11.6649 5.02656 11.4438C5.1332 11.335 5.26047 11.2485 5.40092 11.1895C5.54137 11.1305 5.69219 11.1001 5.84453 11.1001C5.99688 11.1001 6.14769 11.1305 6.28814 11.1895C6.4286 11.2485 6.55587 11.335 6.6625 11.4438L11.4312 16.2766L19.8687 6.23752C19.8785 6.22544 19.8889 6.21396 19.9 6.20314Z" fill="#74C69D"/>
</svg>
