<svg width="19" height="19" viewBox="0 0 19 19" fill="none" xmlns="http://www.w3.org/2000/svg">
<path d="M14.4057 3.71362C13.8227 3.71362 13.3501 4.18624 13.3501 4.76874C13.3501 5.35175 13.8227 5.82436 14.4057 5.82436C14.9882 5.82436 15.4608 5.35175 15.4608 4.76874C15.4608 4.18624 14.9882 3.71362 14.4057 3.71362Z" fill="white"/>
<path d="M9.7141 12.3393C8.14822 12.3393 6.87434 11.0654 6.87434 9.50003C6.87434 7.93414 8.14822 6.66028 9.7141 6.66028C11.2795 6.66028 12.5533 7.93414 12.5533 9.50003C12.5533 11.0654 11.2795 12.3393 9.7141 12.3393ZM9.7141 5.06693C7.26964 5.06693 5.28101 7.05556 5.28101 9.50003C5.28101 11.944 7.26964 13.9326 9.7141 13.9326C12.1581 13.9326 14.1467 11.944 14.1467 9.50003C14.1467 7.05556 12.1581 5.06693 9.7141 5.06693Z" fill="white"/>
<path d="M6.04706 2.19357C3.99941 2.19357 2.33381 3.85917 2.33381 5.90682V13.0932C2.33381 15.1408 3.99941 16.8064 6.04706 16.8064H13.2334C15.2811 16.8064 16.9472 15.1408 16.9472 13.0932V5.90682C16.9472 3.85917 15.2811 2.19357 13.2334 2.19357H6.04706ZM13.2334 18.5H6.04706C3.06538 18.5 0.640747 16.0744 0.640747 13.0932V5.90682C0.640747 2.92513 3.06538 0.5 6.04706 0.5H13.2334C16.2146 0.5 18.6402 2.92513 18.6402 5.90682V13.0932C18.6402 16.0744 16.2146 18.5 13.2334 18.5Z" fill="white"/>
</svg>
