<svg width="186" height="49" viewBox="0 0 186 49" fill="none" xmlns="http://www.w3.org/2000/svg">
<path fill-rule="evenodd" clip-rule="evenodd" d="M39.7719 11.5007C40.9881 10.2815 41.7406 8.59914 41.7406 6.7404C41.7406 3.01794 38.7226 0 35.0001 0C32.6467 0 30.5777 1.20817 29.372 3.03593C29.0517 3.35671 2.21949 36.4282 1.96866 36.8084C0.752489 38.0276 0 39.7104 0 41.5682C0 45.2911 3.01794 48.3091 6.7404 48.3091C9.0938 48.3091 11.1629 47.1014 12.3686 45.2731C12.6889 44.9524 39.5211 11.8804 39.7719 11.5007ZM55.2974 27.1946C56.5171 25.9745 57.271 24.2901 57.271 22.4289C57.271 18.7064 54.2531 15.6885 50.5306 15.6885C48.1762 15.6885 46.1061 16.8976 44.9005 18.7269C44.5777 19.0502 30.4848 36.4218 30.2325 36.8046C29.0128 38.0248 28.2588 39.7091 28.2588 41.5698C28.2588 45.2928 31.2767 48.3108 34.9992 48.3108C37.3536 48.3108 39.4237 47.1016 40.6289 45.2723C40.9517 44.9495 55.0451 27.5774 55.2974 27.1946ZM63.2597 13.4808C66.9822 13.4808 70.0001 10.4634 70.0001 6.7404C70.0001 3.01794 66.9822 0 63.2597 0C59.5368 0 56.5193 3.01794 56.5193 6.7404C56.5193 10.4634 59.5368 13.4808 63.2597 13.4808ZM13.4808 6.7404C13.4808 10.4634 10.4629 13.4808 6.7404 13.4808C3.01794 13.4808 0 10.4634 0 6.7404C0 3.01794 3.01794 0 6.7404 0C10.4629 0 13.4808 3.01794 13.4808 6.7404ZM107.08 12.7153C105.347 11.8086 103.293 11.3553 100.92 11.3553C98.7867 11.3553 96.9467 11.7286 95.4 12.4753C93.8533 13.1953 92.6667 14.1686 91.84 15.3953C91.04 16.5953 90.64 17.9419 90.64 19.4353C90.64 20.5819 90.8933 21.6219 91.4 22.5553C91.9067 23.4619 92.68 24.2353 93.72 24.8753C94.76 25.5153 96.08 26.0086 97.68 26.3553L103.48 27.6753C104.893 27.9953 105.853 28.4486 106.36 29.0353C106.893 29.6219 107.16 30.3019 107.16 31.0753C107.16 31.8753 106.92 32.5686 106.44 33.1553C105.987 33.7153 105.307 34.1419 104.4 34.4353C103.52 34.7286 102.467 34.8753 101.24 34.8753C99.8533 34.8753 98.5867 34.6753 97.44 34.2753C96.32 33.8753 95.3333 33.3153 94.48 32.5953C93.6267 31.8486 92.92 31.0086 92.36 30.0753L89.4 33.0353C90.12 34.1019 91.04 35.0486 92.16 35.8753C93.28 36.7019 94.5867 37.3553 96.08 37.8353C97.5733 38.3153 99.2533 38.5553 101.12 38.5553C103.227 38.5553 105.053 38.2353 106.6 37.5953C108.173 36.9553 109.4 36.0353 110.28 34.8353C111.16 33.6353 111.6 32.2219 111.6 30.5953C111.6 28.8353 111.067 27.3819 110 26.2353C108.933 25.0886 107.12 24.2353 104.56 23.6753L99.2 22.4753C97.6267 22.1286 96.5467 21.6486 95.96 21.0353C95.4 20.4219 95.12 19.7019 95.12 18.8753C95.12 18.1553 95.3067 17.5153 95.68 16.9553C96.08 16.3686 96.6933 15.9019 97.52 15.5553C98.3467 15.2086 99.4 15.0353 100.68 15.0353C102.413 15.0353 103.907 15.3819 105.16 16.0753C106.44 16.7419 107.587 17.8486 108.6 19.3953L111.48 16.6353C110.28 14.9019 108.813 13.5953 107.08 12.7153ZM122.824 18.1553V12.2753L118.544 13.4753V18.1553H114.704V21.5153H118.544V32.8753C118.571 34.2353 118.851 35.3419 119.384 36.1953C119.917 37.0219 120.664 37.6219 121.624 37.9953C122.584 38.3686 123.637 38.5553 124.784 38.5553C125.877 38.5553 126.864 38.4086 127.744 38.1153C128.651 37.7953 129.411 37.3686 130.024 36.8353L129.064 33.7153C128.611 34.1153 128.117 34.4353 127.584 34.6753C127.051 34.8886 126.424 34.9953 125.704 34.9953C124.824 34.9953 124.117 34.7686 123.584 34.3153C123.077 33.8619 122.824 33.1419 122.824 32.1553V21.5153H129.704V18.1553H122.824ZM144.494 22.2353C145.241 22.9553 145.614 23.9819 145.614 25.3153V26.0806L138.494 27.4753C136.708 27.8219 135.321 28.4753 134.334 29.4353C133.374 30.3953 132.894 31.6219 132.894 33.1153C132.894 34.3153 133.174 35.3286 133.734 36.1553C134.321 36.9553 135.108 37.5553 136.094 37.9553C137.108 38.3553 138.241 38.5553 139.494 38.5553C140.508 38.5553 141.508 38.3953 142.494 38.0753C143.481 37.7286 144.348 37.2219 145.094 36.5553C145.388 36.2828 145.642 35.9836 145.857 35.6575C145.95 36.0146 146.082 36.3405 146.254 36.6353C146.654 37.2486 147.188 37.7153 147.854 38.0353C148.548 38.3286 149.321 38.4753 150.174 38.4753C151.108 38.4753 151.881 38.3286 152.494 38.0353L152.734 35.0753C152.281 35.2086 151.814 35.2753 151.334 35.2753C150.348 35.2753 149.854 34.7819 149.854 33.7953V24.8753C149.854 23.2486 149.494 21.9153 148.774 20.8753C148.081 19.8353 147.121 19.0619 145.894 18.5553C144.668 18.0219 143.254 17.7553 141.654 17.7553C139.308 17.7553 137.388 18.2486 135.894 19.2353C134.428 20.2219 133.441 21.5286 132.934 23.1553L136.534 24.6753C136.934 23.4219 137.561 22.5153 138.414 21.9553C139.268 21.3953 140.294 21.1153 141.494 21.1153C142.774 21.1153 143.774 21.4886 144.494 22.2353ZM145.614 29.0787L140.574 30.1153C139.454 30.3286 138.614 30.6353 138.054 31.0353C137.494 31.4353 137.214 32.0219 137.214 32.7953C137.214 33.5419 137.494 34.1419 138.054 34.5953C138.641 35.0219 139.414 35.2353 140.374 35.2353C141.041 35.2353 141.681 35.1553 142.294 34.9953C142.934 34.8353 143.508 34.5819 144.014 34.2353C144.521 33.8619 144.908 33.3953 145.174 32.8353C145.468 32.2486 145.614 31.5553 145.614 30.7553V29.0787ZM156.867 18.1553V38.1553H161.147V27.5553C161.147 26.1953 161.4 25.0753 161.907 24.1953C162.44 23.3153 163.107 22.6619 163.907 22.2353C164.707 21.7819 165.52 21.5553 166.347 21.5553C166.96 21.5553 167.44 21.5953 167.787 21.6753C168.16 21.7286 168.494 21.8086 168.787 21.9153L169.387 18.1553C169.12 18.0219 168.787 17.9286 168.387 17.8753C167.987 17.7953 167.587 17.7553 167.187 17.7553C165.64 17.7553 164.334 18.1019 163.267 18.7953C162.227 19.4619 161.44 20.4486 160.907 21.7553L160.507 18.1553H156.867ZM178.293 18.1553V12.2753L174.013 13.4753V18.1553H170.173V21.5153H174.013V32.8753C174.039 34.2353 174.319 35.3419 174.853 36.1953C175.386 37.0219 176.133 37.6219 177.093 37.9953C178.053 38.3686 179.106 38.5553 180.253 38.5553C181.346 38.5553 182.333 38.4086 183.213 38.1153C184.119 37.7953 184.879 37.3686 185.493 36.8353L184.533 33.7153C184.079 34.1153 183.586 34.4353 183.053 34.6753C182.519 34.8886 181.893 34.9953 181.173 34.9953C180.293 34.9953 179.586 34.7686 179.053 34.3153C178.546 33.8619 178.293 33.1419 178.293 32.1553V21.5153H185.173V18.1553H178.293Z" fill="white"/>
</svg>
