<svg width="212" height="46" viewBox="0 0 212 46" fill="none" xmlns="http://www.w3.org/2000/svg">
<path d="M211.492 20.8069V17.0893H206.886V11.3186L206.72 11.3741L202.392 12.7058H202.281V17.0893H195.456V14.6478C195.456 13.5381 195.733 12.6503 196.232 12.0954C196.732 11.5405 197.453 11.2076 198.341 11.2076C199.007 11.2076 199.673 11.3741 200.339 11.6515L200.505 11.707V7.82286L200.45 7.76738C199.839 7.54543 198.951 7.43445 197.897 7.43445C196.565 7.43445 195.345 7.71189 194.29 8.32225C193.236 8.87713 192.404 9.70944 191.793 10.7637C191.183 11.818 190.906 13.0387 190.906 14.3704V17.0338H187.687V20.7515H190.906V36.399H195.511V20.7515H202.336V30.7392C202.336 34.8453 204.278 36.8983 208.051 36.8983C208.662 36.8983 209.328 36.8429 209.993 36.6764C210.659 36.5099 211.159 36.3989 211.436 36.2325L211.492 36.177V32.4593L211.325 32.5703C211.048 32.7368 210.77 32.8477 210.382 32.9587C209.993 33.0697 209.716 33.1252 209.494 33.1252C208.606 33.1252 207.94 32.9032 207.552 32.4038C207.163 31.9045 206.942 31.0721 206.942 29.9069V20.8069H211.492ZM177.422 33.1252C175.758 33.1252 174.426 32.5703 173.483 31.4605C172.539 30.3508 172.095 28.7971 172.095 26.7996C172.095 24.7466 172.595 23.1374 173.483 22.0277C174.426 20.9179 175.702 20.363 177.367 20.363C178.976 20.363 180.252 20.9179 181.14 21.9722C182.028 23.0264 182.527 24.6356 182.527 26.6886C182.527 28.7972 182.083 30.4063 181.251 31.4605C180.363 32.6258 179.087 33.1252 177.422 33.1252ZM177.589 16.6454C174.426 16.6454 171.873 17.5887 170.042 19.4198C168.211 21.2508 167.323 23.8033 167.323 27.0215C167.323 30.0734 168.211 32.4593 169.987 34.2349C171.762 36.0105 174.148 36.8983 177.089 36.8983C180.197 36.8983 182.638 35.955 184.469 34.0685C186.3 32.1819 187.188 29.685 187.188 26.5777C187.188 23.5258 186.356 21.0289 184.636 19.3088C182.971 17.5332 180.64 16.6454 177.589 16.6454ZM159.944 16.6454C157.78 16.6454 156.004 17.2003 154.617 18.31C153.23 19.4198 152.564 20.8624 152.564 22.5825C152.564 23.4704 152.73 24.3027 153.008 24.9685C153.285 25.6344 153.784 26.2447 154.395 26.7441C155.005 27.2435 155.949 27.7984 157.169 28.2978C158.223 28.7417 159 29.0746 159.5 29.4075C159.999 29.685 160.332 29.9624 160.498 30.2398C160.665 30.5173 160.776 30.9057 160.776 31.3496C160.776 32.6258 159.777 33.2916 157.78 33.2916C157.058 33.2916 156.17 33.1252 155.283 32.8477C154.339 32.5148 153.507 32.1264 152.73 31.516L152.564 31.4051V35.8441L152.619 35.8996C153.285 36.177 154.117 36.4544 155.061 36.6764C156.004 36.8983 156.892 36.9538 157.669 36.9538C159.999 36.9538 161.941 36.399 163.273 35.2892C164.66 34.1795 165.381 32.6813 165.381 30.9057C165.381 29.6295 164.993 28.4642 164.272 27.5764C163.55 26.6886 162.219 25.8563 160.443 25.135C159 24.5801 158.113 24.0807 157.724 23.6923C157.336 23.3594 157.169 22.86 157.169 22.1941C157.169 21.6393 157.391 21.1954 157.891 20.8069C158.39 20.4185 159 20.2521 159.833 20.2521C160.609 20.2521 161.386 20.363 162.163 20.585C162.94 20.8069 163.606 21.1399 164.216 21.5283L164.383 21.6393V17.4222L164.327 17.3667C163.772 17.1448 163.106 16.9228 162.274 16.8118C161.386 16.7564 160.609 16.6454 159.944 16.6454ZM140.523 33.1252C138.858 33.1252 137.527 32.5703 136.583 31.4605C135.64 30.3508 135.196 28.7971 135.196 26.7996C135.196 24.7466 135.696 23.1374 136.583 22.0277C137.527 20.9179 138.803 20.363 140.467 20.363C142.077 20.363 143.353 20.9179 144.241 21.9722C145.128 23.0264 145.628 24.6356 145.628 26.6886C145.628 28.7972 145.184 30.4063 144.352 31.4605C143.519 32.6258 142.243 33.1252 140.523 33.1252ZM140.745 16.6454C137.582 16.6454 135.03 17.5887 133.199 19.4198C131.368 21.2508 130.48 23.8033 130.48 27.0215C130.48 30.0734 131.368 32.4593 133.143 34.2349C134.919 36.0105 137.305 36.8983 140.246 36.8983C143.353 36.8983 145.794 35.955 147.625 34.0685C149.456 32.1819 150.344 29.685 150.344 26.5777C150.344 23.5258 149.512 21.0289 147.792 19.3088C146.127 17.5332 143.741 16.6454 140.745 16.6454ZM123.488 20.474V17.1448H118.938V36.4544H123.488V26.5777C123.488 24.913 123.877 23.5258 124.598 22.4716C125.319 21.4173 126.318 20.9179 127.539 20.9179C127.927 20.9179 128.427 20.9734 128.926 21.1399C129.425 21.2508 129.758 21.4173 129.98 21.5838L130.147 21.6947V17.0893L130.091 17.0338C129.647 16.8673 129.093 16.7564 128.316 16.7564C127.15 16.7564 126.152 17.1448 125.264 17.8661C124.543 18.532 123.988 19.3643 123.488 20.474ZM110.837 16.6454C108.729 16.6454 106.898 17.0893 105.288 17.9771C103.679 18.8649 102.459 20.1411 101.626 21.7502C100.794 23.3594 100.35 25.2459 100.35 27.299C100.35 29.1301 100.738 30.7947 101.571 32.2929C102.403 33.791 103.513 34.9563 104.955 35.7331C106.398 36.5099 108.063 36.9538 109.949 36.9538C112.113 36.9538 113.944 36.5099 115.443 35.6776L115.498 35.6221V31.4605L115.332 31.627C114.666 32.1264 113.889 32.5148 113.112 32.7923C112.335 33.0697 111.558 33.2362 110.948 33.2362C109.172 33.2362 107.73 32.6813 106.676 31.5715C105.621 30.4618 105.122 28.9081 105.122 26.9661C105.122 25.024 105.677 23.4149 106.787 22.2496C107.896 21.0844 109.283 20.474 111.059 20.474C112.557 20.474 114 20.9734 115.387 21.9722L115.554 22.0832V17.6996L115.498 17.6442C114.999 17.3667 114.277 17.0893 113.39 16.9228C112.502 16.7564 111.614 16.6454 110.837 16.6454ZM97.2427 17.1448H92.6927V36.4544H97.2427V17.1448ZM95.0232 8.87713C94.3018 8.87713 93.636 9.15456 93.0811 9.65395C92.5262 10.1533 92.2488 10.8192 92.2488 11.5405C92.2488 12.2619 92.5262 12.9277 93.0256 13.4271C93.5805 13.9265 94.1909 14.1484 94.9677 14.1484C95.7445 14.1484 96.4104 13.9265 96.9098 13.4271C97.4646 12.9277 97.7421 12.3173 97.7421 11.5405C97.7421 10.8192 97.4646 10.2088 96.9652 9.65395C96.4659 9.15456 95.8 8.87713 95.0232 8.87713ZM83.7037 15.7021V36.4544H88.3647V9.48749H81.9281L73.7714 29.5185L65.8367 9.48749H59.1782V36.4544H63.5617V15.7021H63.7282L72.1068 36.4544H75.3806L83.5927 15.7021H83.7037Z" fill="#706D6E"/>
<path d="M22.0024 21.8625H0.639648V0.499756H22.0024V21.8625Z" fill="#F1511B"/>
<path d="M45.6391 21.8625H24.2764V0.499756H45.6391V21.8625Z" fill="#80CC28"/>
<path d="M22.0024 45.5001H0.639648V24.0819H22.0024V45.5001Z" fill="#00ADEF"/>
<path d="M45.6391 45.5001H24.2764V24.0819H45.6391V45.5001Z" fill="#FBBC09"/>
</svg>
