<svg width="19" height="19" viewBox="0 0 19 19" fill="none" xmlns="http://www.w3.org/2000/svg">
<path d="M5.93193 15.3997L6.23667 15.5813C7.3554 16.2478 8.62829 16.6003 9.91695 16.6003C13.8928 16.6003 17.1269 13.3662 17.1269 9.39036C17.1269 5.41501 13.8928 2.1804 9.91695 2.1804C5.94211 2.1804 2.70698 5.41501 2.70698 9.39036C2.70698 10.7029 3.07174 11.9957 3.76211 13.1286L3.94882 13.4354L3.22843 16.1241L5.93193 15.3997ZM0.851562 18.5L2.14175 13.6857C1.41119 12.367 1.0271 10.8902 1.0271 9.39036C1.0271 4.48858 5.01466 0.5 9.91695 0.5C14.8192 0.5 18.8078 4.48858 18.8078 9.39036C18.8078 14.2927 14.8192 18.2812 9.91695 18.2812C8.44565 18.2812 6.99214 17.9093 5.69128 17.2042L0.851562 18.5Z" fill="white"/>
<path fill-rule="evenodd" clip-rule="evenodd" d="M13.224 10.6271C12.8577 10.4079 12.382 10.1637 11.9506 10.3397C11.6204 10.4755 11.4093 10.9934 11.1946 11.2575C11.0847 11.3933 10.9535 11.4142 10.7846 11.3465C9.54321 10.8515 8.59186 10.0228 7.90658 8.88112C7.79058 8.70357 7.81142 8.56367 7.95132 8.39934C8.15838 8.15565 8.41836 7.87889 8.47432 7.55024C8.53029 7.2221 8.37615 6.8385 8.24032 6.54546C8.06684 6.17204 7.873 5.63939 7.49856 5.42775C7.15465 5.23341 6.70135 5.34227 6.39508 5.59156C5.86599 6.02298 5.61058 6.69759 5.61821 7.3671C5.62075 7.55737 5.64415 7.74713 5.68842 7.93028C5.79525 8.37136 5.99876 8.78395 6.22871 9.17518C6.40169 9.47076 6.58993 9.7577 6.79292 10.0334C7.45683 10.9355 8.28305 11.7194 9.23949 12.3055C9.71772 12.598 10.232 12.855 10.7652 13.031C11.363 13.2284 11.8957 13.4339 12.5413 13.3113C13.2169 13.1831 13.8839 12.7649 14.152 12.1137C14.2313 11.9204 14.271 11.7057 14.2267 11.5022C14.1347 11.0809 13.5648 10.8306 13.224 10.6271Z" fill="white"/>
</svg>
